<svg width="18" height="18" viewBox="0 0 18 18" fill="none" xmlns="http://www.w3.org/2000/svg">
<path d="M13.6083 5.22501L9.44167 1.05834C9.1975 0.814172 8.80167 0.814172 8.55833 1.05834L4.39167 5.22501C4.14667 5.46917 4.14667 5.86501 4.39167 6.10834C4.63667 6.35167 5.03083 6.35334 5.275 6.10834L8.375 3.00834V11.5C8.375 11.845 8.655 12.125 9 12.125C9.345 12.125 9.625 11.845 9.625 11.5V3.00834L12.725 6.10834C12.8467 6.23084 13.0067 6.29167 13.1667 6.29167C13.3267 6.29167 13.4867 6.23167 13.6083 6.10834C13.8525 5.86417 13.8525 5.46917 13.6083 5.22501Z" fill="#6E767D"/>
<path d="M15.4233 17.2867H2.57667C1.52334 17.2867 0.666672 16.43 0.666672 15.3767V10.6667C0.666672 10.3217 0.946672 10.0417 1.29167 10.0417C1.63667 10.0417 1.91667 10.3217 1.91667 10.6667V15.3767C1.91667 15.7408 2.2125 16.0367 2.57667 16.0367H15.4233C15.7875 16.0367 16.0833 15.7408 16.0833 15.3767V10.6667C16.0833 10.3217 16.3633 10.0417 16.7083 10.0417C17.0533 10.0417 17.3333 10.3217 17.3333 10.6667V15.3767C17.3333 16.43 16.4767 17.2867 15.4233 17.2867Z" fill="#6E767D"/>
</svg>
