<svg width="18" height="17" viewBox="0 0 18 17" fill="none" xmlns="http://www.w3.org/2000/svg">
<path d="M9.00001 16.0317H8.98834C6.83584 15.9917 0.625008 10.38 0.625008 5.06499C0.625008 2.51166 2.72917 0.269989 5.12751 0.269989C7.03584 0.269989 8.31918 1.58666 8.99918 2.54499C9.67751 1.58832 10.9608 0.269989 12.87 0.269989C15.27 0.269989 17.3733 2.51166 17.3733 5.06582C17.3733 10.3792 11.1617 15.9908 9.00918 16.03H9.00001V16.0317ZM5.12834 1.52082C3.39501 1.52082 1.87584 3.17749 1.87584 5.06666C1.87584 9.84999 7.73751 14.73 9.00084 14.7817C10.2658 14.73 16.1258 9.85082 16.1258 5.06666C16.1258 3.17749 14.6067 1.52082 12.8733 1.52082C10.7667 1.52082 9.59001 3.96749 9.58001 3.99166C9.38834 4.45999 8.61668 4.45999 8.42418 3.99166C8.41251 3.96666 7.23667 1.52082 5.12917 1.52082H5.12834Z" fill="#6E767D"/>
</svg>
